<?xml version="1.0" encoding="UTF-8" standalone="no"?>
<svg width="313px" height="135px" viewBox="0 0 313 135" version="1.1" xmlns="http://www.w3.org/2000/svg" xmlns:xlink="http://www.w3.org/1999/xlink" xmlns:sketch="http://www.bohemiancoding.com/sketch/ns">
    <!-- Generator: Sketch 3.2.2 (9983) - http://www.bohemiancoding.com/sketch -->
    <title>logo_mlh</title>
    <desc>Created with Sketch.</desc>
    <defs></defs>
    <g id="Page-1" stroke="none" stroke-width="1" fill="none" fill-rule="evenodd" sketch:type="MSPage">
        <g id="logo_mlh" sketch:type="MSLayerGroup">
            <path d="M101.229,7.058 C103.393,8.016 105.254,9.274 106.816,10.833 C108.375,12.395 109.633,14.257 110.591,16.421 C111.546,18.586 112.025,20.875 112.025,23.291 L112.025,108.455 C112.025,109.262 111.747,109.942 111.195,110.493 C110.641,111.048 109.961,111.324 109.156,111.324 L88.167,111.324 C87.36,111.324 86.707,111.048 86.205,110.493 C85.7,109.942 85.449,109.262 85.449,108.455 L85.449,31.294 L68.538,31.294 L68.538,108.455 C68.538,109.262 68.285,109.942 67.782,110.493 C67.277,111.048 66.624,111.324 65.819,111.324 L46.793,111.324 C45.986,111.324 45.307,111.048 44.755,110.493 C44.201,109.942 43.924,109.262 43.924,108.455 L43.924,31.294 L27.012,31.294 L27.012,108.455 C27.012,110.368 26.055,111.324 24.144,111.324 L3.306,111.324 C1.392,111.324 0.436,110.368 0.436,108.455 L0.436,8.493 C0.436,6.582 1.392,5.624 3.306,5.624 L94.358,5.624 C96.774,5.624 99.063,6.103 101.229,7.058" id="Fill-1" fill="#90C33F" sketch:type="MSShapeGroup"></path>
            <path d="M198.998,85.654 C199.803,85.654 200.457,85.932 200.961,86.484 C201.465,87.039 201.717,87.719 201.717,88.524 L201.717,108.455 C201.717,109.262 201.465,109.942 200.961,110.493 C200.457,111.048 199.803,111.324 198.998,111.324 L133.768,111.324 C131.854,111.324 130.898,110.368 130.898,108.455 L130.898,8.493 C130.898,6.582 131.854,5.624 133.768,5.624 L154.605,5.624 C156.517,5.624 157.475,6.582 157.475,8.493 L157.475,82.936 C157.475,83.742 157.75,84.397 158.305,84.899 C158.857,85.404 159.536,85.654 160.344,85.654 L198.998,85.654" id="Fill-2" fill="#CDCCC7" sketch:type="MSShapeGroup"></path>
            <path d="M309.241,0.724 C310.082,0.724 310.793,1.015 311.374,1.593 C311.952,2.173 312.243,2.884 312.243,3.726 L312.243,108.322 C312.243,109.166 311.952,109.877 311.374,110.455 C310.793,111.035 310.082,111.324 309.241,111.324 L287.278,111.324 C286.434,111.324 285.723,111.035 285.145,110.455 C284.565,109.877 284.276,109.166 284.276,108.322 L284.276,71.824 C284.276,70.983 284.012,70.298 283.487,69.77 C282.957,69.244 282.274,68.98 281.432,68.98 L250.149,68.98 C249.303,68.98 248.592,69.244 248.016,69.77 C247.436,70.298 247.147,70.983 247.147,71.824 L247.147,108.322 C247.147,110.324 246.143,111.324 244.145,111.324 L222.34,111.324 C220.338,111.324 219.338,110.324 219.338,108.322 L219.338,3.726 C219.338,1.726 220.338,0.724 222.34,0.724 L244.145,0.724 C246.143,0.724 247.147,1.726 247.147,3.726 L247.147,39.118 C247.147,41.12 248.147,42.12 250.149,42.12 L281.432,42.12 C282.274,42.12 282.957,41.831 283.487,41.251 C284.012,40.673 284.276,39.962 284.276,39.118 L284.276,3.726 C284.276,2.884 284.565,2.173 285.145,1.593 C285.723,1.015 286.434,0.724 287.278,0.724 L309.241,0.724" id="Fill-3" fill="#DE4446" sketch:type="MSShapeGroup"></path>
            <path d="M112.038,31.294 L112.025,31.294 L112.025,23.291 C112.025,21.196 111.665,19.197 110.947,17.291 C111.569,18.868 112.047,20.687 112.038,22.54 C112.01,27.778 112.038,31.294 112.038,31.294 M109.039,13.566 C108.595,12.893 108.113,12.259 107.592,11.663 C107.984,12.075 108.19,12.331 108.19,12.331 C108.19,12.331 108.545,12.786 109.039,13.566 M0.451,8.099 C0.452,8.051 0.453,8.015 0.454,7.995 C0.462,7.811 0.5,7.626 0.553,7.452 C0.503,7.652 0.469,7.867 0.451,8.099 M1.024,6.485 C1.046,6.451 1.06,6.433 1.06,6.433 C1.06,6.433 1.084,6.406 1.132,6.363 C1.094,6.402 1.058,6.443 1.024,6.485 M98.693,6.172 C97.296,5.807 95.852,5.624 94.358,5.624 L3.306,5.624 C2.886,5.624 2.513,5.67 2.186,5.761 C2.424,5.684 2.696,5.63 2.997,5.622 C3.404,5.612 15.972,5.609 32.444,5.609 C52.407,5.609 78.102,5.614 94.815,5.618 C96.191,5.633 97.489,5.84 98.693,6.172" id="Fill-4" fill="#B1ADA9" sketch:type="MSShapeGroup"></path>
            <path d="M112.025,31.294 L0.454,31.294 C0.454,31.294 0.421,9.93 0.451,8.099 C0.469,7.867 0.503,7.652 0.553,7.452 C0.692,7.001 0.933,6.619 1.024,6.485 C1.058,6.443 1.094,6.402 1.132,6.363 C1.28,6.23 1.647,5.937 2.186,5.761 C2.513,5.67 2.886,5.624 3.306,5.624 L94.358,5.624 C95.852,5.624 97.296,5.807 98.693,6.172 C103.143,7.399 106.33,10.338 107.592,11.663 C108.113,12.259 108.595,12.893 109.039,13.566 C109.6,14.452 110.341,15.757 110.947,17.291 C111.665,19.197 112.025,21.196 112.025,23.291 L112.025,31.294" id="Fill-5" fill="#6E8F3F" sketch:type="MSShapeGroup"></path>
            <path d="M133.663,111.323 L133.497,111.323 C133.1,111.323 132.759,111.241 132.485,111.136 C132.824,111.253 133.216,111.315 133.663,111.323 M131.126,109.844 C130.982,109.519 130.87,109.099 130.878,108.585 C130.9,107.189 130.887,9.605 130.877,8.448 C130.874,7.957 130.964,7.552 131.077,7.241 C130.958,7.599 130.898,8.016 130.898,8.493 L130.898,108.455 C130.898,108.994 130.974,109.457 131.126,109.844 M157.441,7.905 C157.256,6.385 156.309,5.624 154.605,5.624 L133.768,5.624 C132.753,5.624 132.008,5.893 131.532,6.43 C131.67,6.247 132.233,5.62 133.511,5.616 C133.873,5.615 135.233,5.614 137.104,5.614 C139.37,5.614 142.384,5.615 145.282,5.616 C148.17,5.617 150.941,5.617 152.741,5.617 C153.827,5.617 154.56,5.617 154.75,5.616 L154.765,5.616 C156.129,5.616 156.842,6.386 156.842,6.386 C156.842,6.386 157.403,7.042 157.439,7.823 C157.44,7.834 157.44,7.861 157.441,7.905" id="Fill-6" fill="#B1ADA9" sketch:type="MSShapeGroup"></path>
            <path d="M157.439,111.323 L133.663,111.323 C133.216,111.315 132.824,111.253 132.485,111.136 C131.993,110.947 131.716,110.683 131.716,110.683 C131.716,110.683 131.373,110.402 131.126,109.844 C130.974,109.457 130.898,108.994 130.898,108.455 L130.898,8.493 C130.898,8.016 130.958,7.599 131.077,7.241 C131.258,6.741 131.497,6.48 131.497,6.48 C131.497,6.48 131.508,6.461 131.532,6.43 C132.008,5.893 132.753,5.624 133.768,5.624 L154.605,5.624 C156.309,5.624 157.256,6.385 157.441,7.905 C157.475,11.258 157.439,111.323 157.439,111.323" id="Fill-7" fill="#979591" sketch:type="MSShapeGroup"></path>
            <path d="M247.356,110.991 L245.811,110.991 C246.701,110.547 247.147,109.657 247.147,108.322 L247.147,71.824 C247.147,71.401 247.22,71.017 247.367,70.673 C247.362,92.378 247.356,110.991 247.356,110.991 M247.371,40.535 C247.222,40.138 247.147,39.665 247.147,39.118 L247.147,3.726 C247.147,3.461 247.129,3.213 247.094,2.983 C247.223,3.237 247.339,3.557 247.356,3.9 C247.37,4.216 247.373,20.64 247.371,40.535" id="Fill-8" fill="#D5D2CF" sketch:type="MSShapeGroup"></path>
            <path d="M245.811,110.991 L222.137,110.991 C220.969,110.991 220.26,110.327 220.26,110.327 C220.26,110.327 219.356,109.601 219.379,108.157 C219.403,106.712 219.387,5.743 219.379,4.546 C219.368,3.22 220.03,2.511 220.03,2.511 C220.03,2.511 220.573,1.62 222.153,1.616 C222.541,1.615 224.025,1.615 226.058,1.615 C228.439,1.615 231.573,1.615 234.584,1.616 C237.632,1.617 240.554,1.617 242.442,1.617 C243.566,1.617 244.324,1.617 244.522,1.616 L244.538,1.616 C245.975,1.616 246.723,2.413 246.723,2.413 C246.723,2.413 246.92,2.638 247.094,2.983 C247.129,3.213 247.147,3.461 247.147,3.726 L247.147,39.118 C247.147,39.665 247.222,40.138 247.371,40.535 C247.371,50.245 247.369,60.78 247.367,70.673 C247.22,71.017 247.147,71.401 247.147,71.824 L247.147,108.322 C247.147,109.657 246.701,110.547 245.811,110.991" id="Fill-9" fill="#BF4344" sketch:type="MSShapeGroup"></path>
            <path d="M312.272,110.991 L310.654,110.991 C310.913,110.855 311.153,110.676 311.374,110.455 C311.952,109.877 312.243,109.166 312.243,108.322 L312.243,3.726 C312.243,3.492 312.22,3.268 312.175,3.054 C312.227,3.216 312.264,3.392 312.272,3.573 C312.311,4.384 312.272,110.991 312.272,110.991 M285.24,110.547 C285.041,110.425 284.934,110.325 284.934,110.325 C284.934,110.325 284.022,109.597 284.045,108.148 C284.055,107.562 284.058,90.645 284.058,70.627 C284.203,70.983 284.276,71.382 284.276,71.824 L284.276,108.322 C284.276,109.166 284.565,109.877 285.145,110.455 C285.176,110.487 285.208,110.517 285.24,110.547 M284.055,40.344 C284.053,20.884 284.048,4.698 284.045,4.222 C284.036,3.142 284.474,2.47 284.64,2.256 C284.397,2.691 284.276,3.181 284.276,3.726 L284.276,39.118 C284.276,39.564 284.202,39.973 284.055,40.344" id="Fill-10" fill="#D5D2CF" sketch:type="MSShapeGroup"></path>
            <path d="M310.654,110.991 L286.829,110.991 C286.105,110.991 285.556,110.741 285.24,110.547 C285.208,110.517 285.176,110.487 285.145,110.455 C284.565,109.877 284.276,109.166 284.276,108.322 L284.276,71.824 C284.276,71.382 284.203,70.983 284.058,70.627 C284.058,60.757 284.057,50.139 284.055,40.344 C284.202,39.973 284.276,39.564 284.276,39.118 L284.276,3.726 C284.276,3.181 284.397,2.691 284.64,2.256 C284.678,2.206 284.702,2.181 284.702,2.181 C284.702,2.181 285.25,1.288 286.842,1.282 C287.179,1.282 288.33,1.281 289.947,1.281 C292.156,1.281 295.235,1.282 298.295,1.282 C301.334,1.283 304.355,1.283 306.488,1.283 C308.074,1.283 309.169,1.283 309.415,1.282 L309.43,1.282 C310.881,1.282 311.635,2.083 311.635,2.083 C311.635,2.083 311.996,2.492 312.175,3.054 C312.22,3.268 312.243,3.492 312.243,3.726 L312.243,108.322 C312.243,109.166 311.952,109.877 311.374,110.455 C311.153,110.676 310.913,110.855 310.654,110.991" id="Fill-11" fill="#BF4344" sketch:type="MSShapeGroup"></path>
            <path d="M247.399,39.794 L284.356,39.794 L284.356,69.323 L247.399,69.323 L247.399,39.794 Z" id="Fill-12" fill="#DE4446" sketch:type="MSShapeGroup"></path>
            <path d="M8.461,131.932 C8.556,131.932 8.632,131.965 8.692,132.029 C8.751,132.096 8.781,132.178 8.781,132.274 L8.781,134.649 C8.781,134.744 8.751,134.826 8.692,134.893 C8.632,134.957 8.556,134.99 8.461,134.99 L0.783,134.99 C0.557,134.99 0.445,134.877 0.445,134.649 L0.445,122.733 C0.445,122.506 0.557,122.391 0.783,122.391 L3.235,122.391 C3.46,122.391 3.573,122.506 3.573,122.733 L3.573,131.608 C3.573,131.703 3.605,131.781 3.671,131.84 C3.736,131.901 3.816,131.932 3.911,131.932 L8.461,131.932" id="Fill-13" fill="#EDEDED" sketch:type="MSShapeGroup"></path>
            <path d="M13.171,134.649 C13.171,134.877 13.058,134.99 12.833,134.99 L10.38,134.99 C10.155,134.99 10.042,134.877 10.042,134.649 L10.042,122.733 C10.042,122.506 10.155,122.391 10.38,122.391 L12.833,122.391 C13.058,122.391 13.171,122.506 13.171,122.733 L13.171,134.649" id="Fill-14" fill="#EDEDED" sketch:type="MSShapeGroup"></path>
            <path d="M25.799,128.213 C25.864,128.279 25.896,128.362 25.896,128.457 L25.896,132.885 C25.896,133.172 25.84,133.446 25.727,133.703 C25.615,133.961 25.467,134.188 25.283,134.379 C25.099,134.571 24.88,134.721 24.625,134.828 C24.371,134.938 24.101,134.99 23.817,134.99 L17.525,134.99 C17.241,134.99 16.971,134.938 16.716,134.828 C16.461,134.721 16.239,134.571 16.05,134.379 C15.86,134.188 15.712,133.961 15.605,133.703 C15.498,133.446 15.445,133.172 15.445,132.885 L15.445,124.496 C15.445,124.209 15.498,123.936 15.605,123.678 C15.712,123.42 15.86,123.197 16.05,123.012 C16.239,122.826 16.461,122.676 16.716,122.563 C16.971,122.447 17.241,122.391 17.525,122.391 L24.866,122.391 C24.96,122.391 25.04,122.424 25.105,122.49 C25.17,122.557 25.203,122.637 25.203,122.733 L25.203,125.11 C25.203,125.205 25.17,125.285 25.105,125.352 C25.04,125.418 24.96,125.451 24.866,125.451 L18.911,125.451 C18.816,125.451 18.736,125.481 18.671,125.541 C18.606,125.602 18.574,125.68 18.574,125.776 L18.574,131.608 C18.574,131.703 18.606,131.781 18.671,131.84 C18.736,131.901 18.816,131.932 18.911,131.932 L22.431,131.932 C22.525,131.932 22.602,131.901 22.662,131.84 C22.721,131.781 22.75,131.703 22.75,131.608 L22.75,128.457 C22.75,128.362 22.783,128.279 22.848,128.213 C22.913,128.149 22.993,128.115 23.088,128.115 L25.559,128.115 C25.653,128.115 25.733,128.149 25.799,128.213" id="Fill-15" fill="#EDEDED" sketch:type="MSShapeGroup"></path>
            <path d="M31.211,128.385 L35.388,128.385 L35.388,125.217 L31.211,125.217 L31.211,128.385 Z M36.454,122.391 C36.739,122.391 37.008,122.447 37.263,122.563 C37.518,122.676 37.737,122.826 37.92,123.012 C38.104,123.197 38.252,123.42 38.365,123.678 C38.477,123.936 38.534,124.209 38.534,124.496 L38.534,134.649 C38.534,134.744 38.501,134.826 38.436,134.893 C38.371,134.957 38.291,134.99 38.196,134.99 L35.726,134.99 C35.63,134.99 35.551,134.957 35.486,134.893 C35.42,134.826 35.388,134.744 35.388,134.649 L35.388,131.426 C35.388,131.33 35.358,131.25 35.299,131.184 C35.24,131.117 35.163,131.084 35.068,131.084 L31.549,131.084 C31.454,131.084 31.374,131.117 31.309,131.184 C31.244,131.25 31.211,131.33 31.211,131.426 L31.211,134.649 C31.211,134.877 31.098,134.99 30.873,134.99 L28.42,134.99 C28.195,134.99 28.083,134.877 28.083,134.649 L28.083,124.496 C28.083,124.209 28.136,123.936 28.243,123.678 C28.35,123.42 28.498,123.197 28.687,123.012 C28.876,122.826 29.099,122.676 29.353,122.563 C29.608,122.447 29.878,122.391 30.163,122.391 L36.454,122.391 L36.454,122.391 Z" id="Fill-16" fill="#EDEDED" sketch:type="MSShapeGroup"></path>
            <path d="M60.546,122.518 L60.626,122.733 L60.626,134.649 C60.626,134.744 60.593,134.826 60.528,134.893 C60.463,134.957 60.383,134.99 60.289,134.99 L57.907,134.99 C57.811,134.99 57.735,134.957 57.676,134.893 C57.616,134.826 57.587,134.744 57.587,134.649 L57.587,128.33 L56.343,131.391 C56.188,131.776 56.034,132.153 55.88,132.526 C55.727,132.897 55.59,133.231 55.472,133.524 C55.353,133.819 55.255,134.061 55.178,134.252 C55.101,134.446 55.057,134.547 55.045,134.559 L55.01,134.686 L54.823,134.901 C54.734,134.961 54.642,134.99 54.547,134.99 L52.486,134.99 C52.391,134.99 52.299,134.961 52.21,134.901 L52.023,134.686 L51.97,134.559 C51.958,134.547 51.914,134.446 51.837,134.252 C51.76,134.061 51.662,133.819 51.543,133.524 C51.425,133.231 51.292,132.897 51.144,132.526 C50.996,132.153 50.844,131.776 50.69,131.391 C50.323,130.49 49.915,129.471 49.464,128.33 L49.464,134.649 C49.464,134.877 49.352,134.99 49.126,134.99 L46.763,134.99 C46.537,134.99 46.425,134.877 46.425,134.649 L46.425,122.733 C46.425,122.602 46.478,122.506 46.585,122.446 L46.745,122.391 L49.411,122.391 C49.505,122.391 49.598,122.42 49.686,122.481 L49.873,122.697 L53.517,131.139 L57.16,122.697 L57.347,122.481 C57.435,122.42 57.527,122.391 57.622,122.391 L60.359,122.391 L60.546,122.518" id="Fill-17" fill="#EDEDED" sketch:type="MSShapeGroup"></path>
            <path d="M72.383,122.49 C72.448,122.557 72.481,122.637 72.481,122.733 L72.481,125 C72.481,125.098 72.448,125.176 72.383,125.235 C72.318,125.295 72.238,125.324 72.144,125.324 L66.189,125.324 L66.101,125.414 L66.101,127.377 L66.189,127.449 L71.272,127.449 C71.367,127.449 71.444,127.483 71.503,127.547 C71.562,127.613 71.592,127.696 71.592,127.791 L71.592,129.59 C71.592,129.688 71.562,129.768 71.503,129.834 C71.444,129.901 71.367,129.934 71.272,129.934 L66.189,129.934 L66.101,130.024 L66.101,131.967 L66.189,132.057 L72.144,132.057 C72.238,132.057 72.318,132.09 72.383,132.156 C72.448,132.223 72.481,132.303 72.481,132.399 L72.481,134.649 C72.481,134.744 72.448,134.826 72.383,134.893 C72.318,134.957 72.238,134.99 72.144,134.99 L63.31,134.99 C63.084,134.99 62.972,134.877 62.972,134.649 L62.972,122.733 C62.972,122.637 63.005,122.557 63.07,122.49 C63.135,122.424 63.215,122.391 63.31,122.391 L72.144,122.391 C72.238,122.391 72.318,122.424 72.383,122.49" id="Fill-18" fill="#EDEDED" sketch:type="MSShapeGroup"></path>
            <path d="M86.149,134.91 C86.113,134.963 86.048,134.99 85.954,134.99 L83.288,134.99 C83.192,134.99 83.098,134.963 83.003,134.91 C82.908,134.856 82.837,134.787 82.79,134.703 L80.195,130.942 L77.582,134.703 C77.535,134.787 77.463,134.856 77.369,134.91 C77.274,134.963 77.179,134.99 77.084,134.99 L74.418,134.99 C74.323,134.99 74.258,134.963 74.223,134.91 L74.258,134.703 L78.08,128.781 C78.127,128.697 78.151,128.602 78.151,128.492 C78.151,128.385 78.127,128.289 78.08,128.205 L74.489,122.68 L74.454,122.473 C74.489,122.418 74.555,122.391 74.649,122.391 L77.315,122.391 C77.41,122.391 77.505,122.418 77.6,122.473 C77.694,122.526 77.766,122.596 77.813,122.68 L80.195,126.063 L82.559,122.68 C82.606,122.596 82.677,122.526 82.772,122.473 C82.867,122.418 82.961,122.391 83.057,122.391 L85.723,122.391 C85.817,122.391 85.882,122.418 85.918,122.473 L85.882,122.68 L82.292,128.205 C82.245,128.289 82.221,128.385 82.221,128.492 C82.221,128.602 82.245,128.697 82.292,128.781 L86.113,134.703 L86.149,134.91" id="Fill-19" fill="#EDEDED" sketch:type="MSShapeGroup"></path>
            <path d="M91.037,134.649 C91.037,134.877 90.924,134.99 90.699,134.99 L88.246,134.99 C88.02,134.99 87.908,134.877 87.908,134.649 L87.908,122.733 C87.908,122.506 88.02,122.391 88.246,122.391 L90.699,122.391 C90.924,122.391 91.037,122.506 91.037,122.733 L91.037,134.649" id="Fill-20" fill="#EDEDED" sketch:type="MSShapeGroup"></path>
            <path d="M96.52,125.541 C96.454,125.602 96.421,125.68 96.421,125.776 L96.421,131.608 C96.421,131.703 96.454,131.781 96.52,131.84 C96.584,131.901 96.664,131.932 96.759,131.932 L102.465,131.932 C102.56,131.932 102.639,131.965 102.705,132.029 C102.77,132.096 102.802,132.178 102.802,132.274 L102.802,134.649 C102.802,134.744 102.77,134.826 102.705,134.893 C102.639,134.957 102.56,134.99 102.465,134.99 L95.373,134.99 C95.088,134.99 94.819,134.938 94.564,134.828 C94.309,134.721 94.087,134.571 93.897,134.379 C93.708,134.188 93.56,133.961 93.453,133.703 C93.347,133.446 93.293,133.172 93.293,132.885 L93.293,124.496 C93.293,124.209 93.347,123.936 93.453,123.678 C93.56,123.42 93.708,123.197 93.897,123.012 C94.087,122.826 94.309,122.676 94.564,122.563 C94.819,122.447 95.088,122.391 95.373,122.391 L102.465,122.391 C102.56,122.391 102.639,122.424 102.705,122.49 C102.77,122.557 102.802,122.637 102.802,122.733 L102.802,125.11 C102.802,125.205 102.77,125.285 102.705,125.352 C102.639,125.418 102.56,125.451 102.465,125.451 L96.759,125.451 C96.664,125.451 96.584,125.481 96.52,125.541" id="Fill-21" fill="#EDEDED" sketch:type="MSShapeGroup"></path>
            <path d="M108.259,128.385 L112.436,128.385 L112.436,125.217 L108.259,125.217 L108.259,128.385 Z M113.502,122.391 C113.787,122.391 114.056,122.447 114.311,122.563 C114.565,122.676 114.785,122.826 114.968,123.012 C115.152,123.197 115.3,123.42 115.413,123.678 C115.525,123.936 115.582,124.209 115.582,124.496 L115.582,134.649 C115.582,134.744 115.549,134.826 115.484,134.893 C115.418,134.957 115.339,134.99 115.244,134.99 L112.773,134.99 C112.678,134.99 112.599,134.957 112.534,134.893 C112.468,134.826 112.436,134.744 112.436,134.649 L112.436,131.426 C112.436,131.33 112.406,131.25 112.347,131.184 C112.288,131.117 112.21,131.084 112.116,131.084 L108.597,131.084 C108.501,131.084 108.421,131.117 108.356,131.184 C108.292,131.25 108.259,131.33 108.259,131.426 L108.259,134.649 C108.259,134.877 108.146,134.99 107.921,134.99 L105.468,134.99 C105.243,134.99 105.131,134.877 105.131,134.649 L105.131,124.496 C105.131,124.209 105.184,123.936 105.291,123.678 C105.397,123.42 105.545,123.197 105.735,123.012 C105.924,122.826 106.146,122.676 106.401,122.563 C106.656,122.447 106.926,122.391 107.21,122.391 L113.502,122.391 L113.502,122.391 Z" id="Fill-22" fill="#EDEDED" sketch:type="MSShapeGroup"></path>
            <path d="M128.263,122.49 C128.328,122.557 128.361,122.637 128.361,122.733 L128.361,134.649 C128.361,134.744 128.328,134.826 128.263,134.893 C128.198,134.957 128.118,134.99 128.023,134.99 L125.463,134.99 C125.369,134.99 125.274,134.963 125.179,134.91 C125.084,134.856 125.013,134.787 124.966,134.703 L121.038,127.36 L121.038,134.649 C121.038,134.877 120.925,134.99 120.7,134.99 L118.248,134.99 C118.022,134.99 117.91,134.877 117.91,134.649 L117.91,122.733 C117.91,122.506 118.022,122.391 118.248,122.391 L120.771,122.391 C120.866,122.391 120.96,122.418 121.056,122.473 C121.15,122.526 121.222,122.596 121.269,122.68 L125.215,130.041 L125.215,122.733 C125.215,122.637 125.247,122.557 125.313,122.49 C125.377,122.424 125.458,122.391 125.552,122.391 L128.023,122.391 C128.118,122.391 128.198,122.424 128.263,122.49" id="Fill-23" fill="#EDEDED" sketch:type="MSShapeGroup"></path>
            <path d="M133.817,128.385 L137.994,128.385 L137.994,125.217 L133.817,125.217 L133.817,128.385 Z M139.061,122.391 C139.345,122.391 139.614,122.447 139.87,122.563 C140.124,122.676 140.343,122.826 140.527,123.012 C140.71,123.197 140.858,123.42 140.971,123.678 C141.084,123.936 141.14,124.209 141.14,124.496 L141.14,134.649 C141.14,134.744 141.107,134.826 141.042,134.893 C140.977,134.957 140.897,134.99 140.803,134.99 L138.332,134.99 C138.237,134.99 138.157,134.957 138.092,134.893 C138.027,134.826 137.994,134.744 137.994,134.649 L137.994,131.426 C137.994,131.33 137.964,131.25 137.905,131.184 C137.846,131.117 137.769,131.084 137.674,131.084 L134.155,131.084 C134.06,131.084 133.98,131.117 133.915,131.184 C133.85,131.25 133.817,131.33 133.817,131.426 L133.817,134.649 C133.817,134.877 133.705,134.99 133.48,134.99 L131.027,134.99 C130.802,134.99 130.689,134.877 130.689,134.649 L130.689,124.496 C130.689,124.209 130.743,123.936 130.849,123.678 C130.956,123.42 131.104,123.197 131.293,123.012 C131.483,122.826 131.705,122.676 131.96,122.563 C132.215,122.447 132.484,122.391 132.769,122.391 L139.061,122.391 L139.061,122.391 Z" id="Fill-24" fill="#EDEDED" sketch:type="MSShapeGroup"></path>
            <path d="M152.16,131.932 L156.336,131.932 L156.336,125.451 L152.16,125.451 L152.16,131.932 Z M157.403,122.391 C157.688,122.391 157.956,122.447 158.211,122.563 C158.466,122.676 158.686,122.826 158.869,123.012 C159.053,123.197 159.2,123.42 159.313,123.678 C159.426,123.936 159.482,124.209 159.482,124.496 L159.482,132.885 C159.482,133.172 159.426,133.446 159.313,133.703 C159.2,133.961 159.053,134.188 158.869,134.379 C158.686,134.571 158.466,134.721 158.211,134.828 C157.956,134.938 157.688,134.99 157.403,134.99 L149.369,134.99 C149.144,134.99 149.031,134.877 149.031,134.649 L149.031,122.733 C149.031,122.506 149.144,122.391 149.369,122.391 L157.403,122.391 L157.403,122.391 Z" id="Fill-25" fill="#EDEDED" sketch:type="MSShapeGroup"></path>
            <path d="M171.204,122.49 C171.27,122.557 171.302,122.637 171.302,122.733 L171.302,125 C171.302,125.098 171.27,125.176 171.204,125.235 C171.139,125.295 171.059,125.324 170.964,125.324 L165.01,125.324 L164.921,125.414 L164.921,127.377 L165.01,127.449 L170.094,127.449 C170.188,127.449 170.265,127.483 170.324,127.547 C170.384,127.613 170.413,127.696 170.413,127.791 L170.413,129.59 C170.413,129.688 170.384,129.768 170.324,129.834 C170.265,129.901 170.188,129.934 170.094,129.934 L165.01,129.934 L164.921,130.024 L164.921,131.967 L165.01,132.057 L170.964,132.057 C171.059,132.057 171.139,132.09 171.204,132.156 C171.27,132.223 171.302,132.303 171.302,132.399 L171.302,134.649 C171.302,134.744 171.27,134.826 171.204,134.893 C171.139,134.957 171.059,134.99 170.964,134.99 L162.131,134.99 C161.905,134.99 161.793,134.877 161.793,134.649 L161.793,122.733 C161.793,122.637 161.825,122.557 161.891,122.49 C161.956,122.424 162.036,122.391 162.131,122.391 L170.964,122.391 C171.059,122.391 171.139,122.424 171.204,122.49" id="Fill-26" fill="#EDEDED" sketch:type="MSShapeGroup"></path>
            <path d="M189.325,122.391 C189.418,122.391 189.499,122.424 189.565,122.49 C189.629,122.557 189.663,122.637 189.663,122.733 L189.663,134.649 C189.663,134.744 189.629,134.826 189.565,134.893 C189.499,134.957 189.418,134.99 189.325,134.99 L186.854,134.99 C186.758,134.99 186.678,134.957 186.614,134.893 C186.549,134.826 186.516,134.744 186.516,134.649 L186.516,130.49 C186.516,130.395 186.487,130.317 186.426,130.256 C186.368,130.197 186.292,130.166 186.196,130.166 L182.677,130.166 C182.582,130.166 182.502,130.197 182.437,130.256 C182.372,130.317 182.339,130.395 182.339,130.49 L182.339,134.649 C182.339,134.877 182.227,134.99 182.001,134.99 L179.549,134.99 C179.323,134.99 179.211,134.877 179.211,134.649 L179.211,122.733 C179.211,122.506 179.323,122.391 179.549,122.391 L182.001,122.391 C182.227,122.391 182.339,122.506 182.339,122.733 L182.339,126.766 C182.339,126.992 182.451,127.108 182.677,127.108 L186.196,127.108 C186.292,127.108 186.368,127.074 186.426,127.008 C186.487,126.942 186.516,126.862 186.516,126.766 L186.516,122.733 C186.516,122.637 186.549,122.557 186.614,122.49 C186.678,122.424 186.758,122.391 186.854,122.391 L189.325,122.391" id="Fill-27" fill="#EDEDED" sketch:type="MSShapeGroup"></path>
            <path d="M195.118,128.385 L199.295,128.385 L199.295,125.217 L195.118,125.217 L195.118,128.385 Z M200.362,122.391 C200.645,122.391 200.915,122.447 201.17,122.563 C201.424,122.676 201.643,122.826 201.829,123.012 C202.012,123.197 202.159,123.42 202.272,123.678 C202.385,123.936 202.442,124.209 202.442,124.496 L202.442,134.649 C202.442,134.744 202.409,134.826 202.344,134.893 C202.278,134.957 202.198,134.99 202.104,134.99 L199.633,134.99 C199.538,134.99 199.458,134.957 199.393,134.893 C199.327,134.826 199.295,134.744 199.295,134.649 L199.295,131.426 C199.295,131.33 199.266,131.25 199.206,131.184 C199.147,131.117 199.071,131.084 198.975,131.084 L195.456,131.084 C195.362,131.084 195.282,131.117 195.215,131.184 C195.151,131.25 195.118,131.33 195.118,131.426 L195.118,134.649 C195.118,134.877 195.006,134.99 194.78,134.99 L192.329,134.99 C192.102,134.99 191.991,134.877 191.991,134.649 L191.991,124.496 C191.991,124.209 192.043,123.936 192.151,123.678 C192.256,123.42 192.405,123.197 192.594,123.012 C192.784,122.826 193.006,122.676 193.26,122.563 C193.516,122.447 193.786,122.391 194.069,122.391 L200.362,122.391 L200.362,122.391 Z" id="Fill-28" fill="#EDEDED" sketch:type="MSShapeGroup"></path>
            <path d="M207.942,125.541 C207.877,125.602 207.844,125.68 207.844,125.776 L207.844,131.608 C207.844,131.703 207.877,131.781 207.942,131.84 C208.006,131.901 208.086,131.932 208.182,131.932 L213.887,131.932 C213.983,131.932 214.063,131.965 214.127,132.029 C214.192,132.096 214.225,132.178 214.225,132.274 L214.225,134.649 C214.225,134.744 214.192,134.826 214.127,134.893 C214.063,134.957 213.983,134.99 213.887,134.99 L206.795,134.99 C206.512,134.99 206.243,134.938 205.987,134.828 C205.733,134.721 205.51,134.571 205.321,134.379 C205.131,134.188 204.983,133.961 204.875,133.703 C204.77,133.446 204.715,133.172 204.715,132.885 L204.715,124.496 C204.715,124.209 204.77,123.936 204.875,123.678 C204.983,123.42 205.131,123.197 205.321,123.012 C205.51,122.826 205.733,122.676 205.987,122.563 C206.243,122.447 206.512,122.391 206.795,122.391 L213.887,122.391 C213.983,122.391 214.063,122.424 214.127,122.49 C214.192,122.557 214.225,122.637 214.225,122.733 L214.225,125.11 C214.225,125.205 214.192,125.285 214.127,125.352 C214.063,125.418 213.983,125.451 213.887,125.451 L208.182,125.451 C208.086,125.451 208.006,125.481 207.942,125.541" id="Fill-29" fill="#EDEDED" sketch:type="MSShapeGroup"></path>
            <path d="M223.645,127.701 L223.627,127.826 L227.786,134.703 L227.805,134.91 C227.768,134.963 227.704,134.99 227.608,134.99 L224.659,134.99 C224.563,134.99 224.469,134.963 224.374,134.91 C224.28,134.856 224.208,134.787 224.161,134.703 L221.477,129.789 L221.387,129.772 L219.913,131.408 C219.854,131.469 219.803,131.557 219.762,131.67 C219.719,131.783 219.7,131.889 219.7,131.985 L219.7,134.649 C219.7,134.877 219.586,134.99 219.362,134.99 L216.909,134.99 C216.684,134.99 216.571,134.877 216.571,134.649 L216.571,122.733 C216.571,122.506 216.684,122.391 216.909,122.391 L219.362,122.391 C219.586,122.391 219.7,122.506 219.7,122.733 L219.7,128.078 L224.286,122.643 C224.344,122.571 224.428,122.512 224.534,122.463 C224.641,122.414 224.741,122.391 224.836,122.391 L227.786,122.391 C227.881,122.391 227.938,122.414 227.956,122.463 L227.893,122.643 L223.645,127.701" id="Fill-30" fill="#EDEDED" sketch:type="MSShapeGroup"></path>
            <path d="M232.727,128.385 L236.903,128.385 L236.903,125.217 L232.727,125.217 L232.727,128.385 Z M237.969,122.391 C238.254,122.391 238.524,122.447 238.778,122.563 C239.034,122.676 239.252,122.826 239.436,123.012 C239.62,123.197 239.768,123.42 239.881,123.678 C239.993,123.936 240.049,124.209 240.049,124.496 L240.049,134.649 C240.049,134.744 240.016,134.826 239.952,134.893 C239.887,134.957 239.807,134.99 239.711,134.99 L237.241,134.99 C237.147,134.99 237.067,134.957 237,134.893 C236.936,134.826 236.903,134.744 236.903,134.649 L236.903,131.426 C236.903,131.33 236.874,131.25 236.815,131.184 C236.754,131.117 236.678,131.084 236.584,131.084 L233.065,131.084 C232.969,131.084 232.889,131.117 232.825,131.184 C232.758,131.25 232.727,131.33 232.727,131.426 L232.727,134.649 C232.727,134.877 232.614,134.99 232.389,134.99 L229.936,134.99 C229.711,134.99 229.598,134.877 229.598,134.649 L229.598,124.496 C229.598,124.209 229.651,123.936 229.758,123.678 C229.866,123.42 230.012,123.197 230.204,123.012 C230.393,122.826 230.614,122.676 230.87,122.563 C231.124,122.447 231.393,122.391 231.678,122.391 L237.969,122.391 L237.969,122.391 Z" id="Fill-31" fill="#EDEDED" sketch:type="MSShapeGroup"></path>
            <path d="M251.176,125.11 C251.176,125.205 251.143,125.285 251.079,125.352 C251.012,125.418 250.932,125.451 250.838,125.451 L248.315,125.451 C248.219,125.451 248.139,125.481 248.075,125.541 C248.008,125.602 247.977,125.68 247.977,125.776 L247.977,134.649 C247.977,134.744 247.948,134.826 247.887,134.893 C247.829,134.957 247.75,134.99 247.657,134.99 L245.186,134.99 C245.09,134.99 245.012,134.957 244.946,134.893 C244.881,134.826 244.848,134.744 244.848,134.649 L244.848,125.776 C244.848,125.68 244.819,125.602 244.76,125.541 C244.7,125.481 244.624,125.451 244.528,125.451 L242.004,125.451 C241.911,125.451 241.831,125.418 241.764,125.352 C241.7,125.285 241.667,125.205 241.667,125.11 L241.667,122.733 C241.667,122.506 241.78,122.391 242.004,122.391 L250.838,122.391 C250.932,122.391 251.012,122.424 251.079,122.49 C251.143,122.557 251.176,122.637 251.176,122.733 L251.176,125.11" id="Fill-32" fill="#EDEDED" sketch:type="MSShapeGroup"></path>
            <path d="M262.942,122.391 C263.038,122.391 263.118,122.424 263.182,122.49 C263.247,122.557 263.28,122.637 263.28,122.733 L263.28,134.649 C263.28,134.744 263.247,134.826 263.182,134.893 C263.118,134.957 263.038,134.99 262.942,134.99 L260.471,134.99 C260.377,134.99 260.297,134.957 260.231,134.893 C260.167,134.826 260.133,134.744 260.133,134.649 L260.133,130.49 C260.133,130.395 260.104,130.317 260.045,130.256 C259.985,130.197 259.909,130.166 259.815,130.166 L256.295,130.166 C256.2,130.166 256.12,130.197 256.055,130.256 C255.991,130.317 255.958,130.395 255.958,130.49 L255.958,134.649 C255.958,134.877 255.844,134.99 255.62,134.99 L253.167,134.99 C252.942,134.99 252.829,134.877 252.829,134.649 L252.829,122.733 C252.829,122.506 252.942,122.391 253.167,122.391 L255.62,122.391 C255.844,122.391 255.958,122.506 255.958,122.733 L255.958,126.766 C255.958,126.992 256.069,127.108 256.295,127.108 L259.815,127.108 C259.909,127.108 259.985,127.074 260.045,127.008 C260.104,126.942 260.133,126.862 260.133,126.766 L260.133,122.733 C260.133,122.637 260.167,122.557 260.231,122.49 C260.297,122.424 260.377,122.391 260.471,122.391 L262.942,122.391" id="Fill-33" fill="#EDEDED" sketch:type="MSShapeGroup"></path>
            <path d="M268.719,131.932 L272.895,131.932 L272.895,125.451 L268.719,125.451 L268.719,131.932 Z M273.961,122.391 C274.247,122.391 274.516,122.447 274.77,122.563 C275.026,122.676 275.245,122.826 275.428,123.012 C275.612,123.197 275.76,123.42 275.874,123.678 C275.985,123.936 276.042,124.209 276.042,124.496 L276.042,132.885 C276.042,133.172 275.985,133.446 275.874,133.703 C275.76,133.961 275.612,134.188 275.428,134.379 C275.245,134.571 275.026,134.721 274.77,134.828 C274.516,134.938 274.247,134.99 273.961,134.99 L267.67,134.99 C267.385,134.99 267.116,134.938 266.862,134.828 C266.606,134.721 266.383,134.571 266.194,134.379 C266.004,134.188 265.858,133.961 265.75,133.703 C265.643,133.446 265.59,133.172 265.59,132.885 L265.59,124.496 C265.59,124.209 265.643,123.936 265.75,123.678 C265.858,123.42 266.004,123.197 266.194,123.012 C266.383,122.826 266.606,122.676 266.862,122.563 C267.116,122.447 267.385,122.391 267.67,122.391 L273.961,122.391 L273.961,122.391 Z" id="Fill-34" fill="#EDEDED" sketch:type="MSShapeGroup"></path>
            <path d="M288.706,122.49 C288.77,122.557 288.803,122.637 288.803,122.733 L288.803,134.649 C288.803,134.744 288.77,134.826 288.706,134.893 C288.639,134.957 288.559,134.99 288.465,134.99 L285.905,134.99 C285.811,134.99 285.715,134.963 285.622,134.91 C285.526,134.856 285.456,134.787 285.409,134.703 L281.479,127.36 L281.479,134.649 C281.479,134.877 281.368,134.99 281.141,134.99 L278.69,134.99 C278.463,134.99 278.352,134.877 278.352,134.649 L278.352,122.733 C278.352,122.506 278.463,122.391 278.69,122.391 L281.213,122.391 C281.307,122.391 281.403,122.418 281.497,122.473 C281.592,122.526 281.663,122.596 281.711,122.68 L285.657,130.041 L285.657,122.733 C285.657,122.637 285.69,122.557 285.754,122.49 C285.819,122.424 285.899,122.391 285.995,122.391 L288.465,122.391 C288.559,122.391 288.639,122.424 288.706,122.49" id="Fill-35" fill="#EDEDED" sketch:type="MSShapeGroup"></path>
            <path d="M300.559,122.49 C300.625,122.557 300.657,122.637 300.657,122.733 L300.657,125 C300.657,125.098 300.625,125.176 300.559,125.235 C300.495,125.295 300.415,125.324 300.319,125.324 L294.366,125.324 L294.276,125.414 L294.276,127.377 L294.366,127.449 L299.45,127.449 C299.543,127.449 299.62,127.483 299.68,127.547 C299.739,127.613 299.768,127.696 299.768,127.791 L299.768,129.59 C299.768,129.688 299.739,129.768 299.68,129.834 C299.62,129.901 299.543,129.934 299.45,129.934 L294.366,129.934 L294.276,130.024 L294.276,131.967 L294.366,132.057 L300.319,132.057 C300.415,132.057 300.495,132.09 300.559,132.156 C300.625,132.223 300.657,132.303 300.657,132.399 L300.657,134.649 C300.657,134.744 300.625,134.826 300.559,134.893 C300.495,134.957 300.415,134.99 300.319,134.99 L291.487,134.99 C291.26,134.99 291.149,134.877 291.149,134.649 L291.149,122.733 C291.149,122.637 291.18,122.557 291.247,122.49 C291.311,122.424 291.391,122.391 291.487,122.391 L300.319,122.391 C300.415,122.391 300.495,122.424 300.559,122.49" id="Fill-36" fill="#EDEDED" sketch:type="MSShapeGroup"></path>
            <path d="M311.188,127.574 C311.444,127.684 311.663,127.832 311.846,128.026 C312.03,128.217 312.178,128.44 312.292,128.692 C312.403,128.944 312.459,129.213 312.459,129.5 L312.459,132.885 C312.459,133.172 312.403,133.446 312.292,133.703 C312.178,133.961 312.03,134.188 311.846,134.379 C311.663,134.571 311.444,134.721 311.188,134.828 C310.934,134.938 310.665,134.99 310.379,134.99 L303.288,134.99 C303.063,134.99 302.95,134.877 302.95,134.649 L302.95,132.471 C302.95,132.375 302.983,132.293 303.049,132.229 C303.114,132.162 303.194,132.129 303.288,132.129 L309.331,132.129 C309.426,132.129 309.506,132.1 309.571,132.039 C309.637,131.979 309.668,131.901 309.668,131.805 L309.668,130.311 C309.668,130.215 309.637,130.135 309.571,130.069 C309.506,130.002 309.426,129.969 309.331,129.969 L305.03,129.969 C304.747,129.969 304.477,129.914 304.221,129.807 C303.967,129.699 303.745,129.549 303.555,129.358 C303.366,129.164 303.217,128.944 303.11,128.692 C303.004,128.44 302.95,128.168 302.95,127.881 L302.95,124.496 C302.95,124.209 303.004,123.936 303.11,123.678 C303.217,123.42 303.366,123.197 303.555,123.012 C303.745,122.826 303.967,122.676 304.221,122.563 C304.477,122.447 304.747,122.391 305.03,122.391 L311.731,122.391 C311.956,122.391 312.069,122.506 312.069,122.733 L312.069,124.947 C312.069,125.043 312.036,125.121 311.971,125.182 C311.905,125.24 311.825,125.272 311.731,125.272 L306.061,125.272 C305.965,125.272 305.889,125.305 305.831,125.369 C305.77,125.436 305.741,125.518 305.741,125.613 L305.741,127.071 C305.741,127.166 305.77,127.248 305.831,127.315 C305.889,127.379 305.965,127.412 306.061,127.412 L310.379,127.412 C310.665,127.412 310.934,127.467 311.188,127.574" id="Fill-37" fill="#EDEDED" sketch:type="MSShapeGroup"></path>
        </g>
    </g>
</svg>